<svg width="500" height="132" viewBox="0 0 500 132" fill="none" xmlns="http://www.w3.org/2000/svg">
<path d="M0 98.249V9.8249H42.3622V11.4837H26.7954H11.2285V53.2076H39.0447V54.8663H11.2285V96.5903H42.3622V98.249H0ZM65.0437 98.249H54.198V0H65.0437V98.249ZM133.722 75.2817H144.44C140.484 89.8277 127.47 99.525 111.265 99.525C91.7423 99.525 76.8135 85.3618 76.8135 65.4568C76.8135 45.5518 91.7423 31.5162 111.265 31.5162C127.47 31.5162 140.484 41.086 144.44 55.5043H88.9352C88.2972 58.5666 88.042 61.8841 88.042 65.4568C88.042 84.5962 97.4842 97.8662 111.265 97.8662C122.238 97.8662 131.042 89.5725 133.722 75.2817ZM111.265 33.175C100.802 33.175 92.3803 40.8308 89.318 53.8456H133.339C130.277 42.4895 122.621 33.175 111.265 33.175ZM175.625 131.169C159.421 131.169 147.426 119.558 147.426 104.118C147.426 89.1897 159.038 77.8336 174.732 77.4509V73.4954C162.738 73.1126 153.806 64.3085 153.806 52.5696C153.806 40.5756 163.249 31.5162 175.625 31.5162L203.824 21.181V31.899H179.964C190.298 33.6854 197.571 41.9791 197.571 52.5696C197.571 64.3085 188.64 73.1126 176.519 73.4954V77.4509C192.34 77.8336 204.079 89.1897 204.079 104.118C204.079 119.558 191.83 131.169 175.625 131.169ZM175.625 71.8366C182.388 71.8366 187.492 64.9464 187.492 52.5696C187.492 40.1928 182.388 33.175 175.625 33.175C168.863 33.175 163.887 40.1928 163.887 52.5696C163.887 64.9464 168.863 71.8366 175.625 71.8366ZM175.625 129.382C185.706 129.382 192.978 119.43 192.978 104.118C192.978 89.1897 185.706 79.2372 175.625 79.2372C165.928 79.2372 158.527 89.1897 158.527 104.118C158.527 119.43 165.928 129.382 175.625 129.382ZM231.039 99.525C219.045 99.525 210.624 91.3588 210.624 80.5132C210.624 68.9019 219.3 60.6082 232.06 60.6082H248.648V48.2313C248.648 38.4064 243.671 33.175 237.291 33.175C231.422 33.175 225.935 38.4064 225.935 48.6141V52.1868H215.089C215.089 40.1928 224.659 31.5162 237.291 31.5162C249.924 31.5162 259.366 40.1928 259.366 52.8248V98.249H248.648V88.5517C245.84 95.3143 239.588 99.525 231.039 99.525ZM234.995 96.0799C242.65 96.0799 248.648 89.1897 248.648 79.7476V62.2669H237.036C227.339 62.2669 221.597 69.7951 221.597 80.0028C221.597 89.3173 226.956 96.0799 234.995 96.0799ZM311.667 98.249V52.442C311.667 43.2551 306.052 35.3441 298.141 35.3441C290.103 35.3441 284.106 42.6171 284.106 51.6764V98.249H273.26V32.7922H284.106V43.8931C287.04 36.4925 293.676 31.5162 302.352 31.5162C314.091 31.5162 322.513 40.5756 322.513 52.5696V98.249H311.667ZM389.646 75.4093H400.364C396.409 89.9553 383.904 99.525 367.955 99.525C348.305 99.525 333.504 85.3618 333.504 65.4568C333.504 45.5518 348.305 31.5162 367.955 31.5162C383.904 31.5162 396.409 41.086 400.364 55.5043H389.519C387.094 43.2551 379.439 33.175 367.955 33.175C354.685 33.175 344.732 45.4242 344.732 65.4568C344.732 84.5962 354.174 97.8662 367.955 97.8662C378.928 97.8662 387.094 88.5517 389.646 75.4093ZM466.297 75.2817H477.015C473.059 89.8277 460.045 99.525 443.84 99.525C424.317 99.525 409.388 85.3618 409.388 65.4568C409.388 45.5518 424.317 31.5162 443.84 31.5162C460.045 31.5162 473.059 41.086 477.015 55.5043H421.51C420.872 58.5666 420.617 61.8841 420.617 65.4568C420.617 84.5962 430.059 97.8662 443.84 97.8662C454.813 97.8662 463.617 89.5725 466.297 75.2817ZM443.84 33.175C433.377 33.175 424.955 40.8308 421.893 53.8456H465.914C462.852 42.4895 455.196 33.175 443.84 33.175Z" fill="white"/>
<path d="M453.693 27.6678V0H458.88V27.6678H463.822V0H469.044L479.322 17.7656V0H484.482L494.758 17.7656V0H500V27.6678H494.467L484.565 10.4846V27.6678H479.177L469.129 10.4846V27.6678H463.822H458.88H453.693Z" fill="white"/>
</svg>
